<svg xmlns="http://www.w3.org/2000/svg" width="243.41" height="67" viewBox="0 0 243.41 67"><defs><style>.a{fill:#f7391c;}</style></defs><path class="a" d="M-9774,299a144.444,144.444,0,0,1-37.03-4.806,143.248,143.248,0,0,1-33.453-13.593,144.546,144.546,0,0,1-28.637-21.143A144.717,144.717,0,0,1-9895.705,232h243.41a144.815,144.815,0,0,1-22.585,27.458,144.543,144.543,0,0,1-28.637,21.143A143.248,143.248,0,0,1-9736.97,294.2,144.444,144.444,0,0,1-9774,299Z" transform="translate(9895.705 -232.001)"/></svg>