<svg xmlns="http://www.w3.org/2000/svg" width="42.17" height="42.17" viewBox="0 0 42.17 42.17"><g transform="translate(-1422.758 -138.428)"><ellipse cx="8.551" cy="8.551" rx="8.551" ry="8.551" transform="translate(1435.196 150.866)"/><path d="M48.976,19.2H27.6a10.62,10.62,0,0,0-7.579,2.721A10.62,10.62,0,0,0,17.3,29.5V50.876a10.712,10.712,0,0,0,2.915,7.773,10.955,10.955,0,0,0,7.579,2.721H48.976a10.62,10.62,0,0,0,7.579-2.721,9.955,9.955,0,0,0,2.915-7.579V29.694a10.955,10.955,0,0,0-2.721-7.579A10.405,10.405,0,0,0,48.976,19.2ZM38.288,53.4a13.215,13.215,0,0,1,0-26.429,13.216,13.216,0,1,1,0,26.429Zm13.8-23.9a3.109,3.109,0,1,1,3.109-3.109A3.07,3.07,0,0,1,52.085,29.5Z" transform="translate(1405.458 119.228)"/></g></svg>