<svg xmlns="http://www.w3.org/2000/svg" xmlns:xlink="http://www.w3.org/1999/xlink" width="43" height="43" viewBox="0 0 43 43"><defs><style>.a{clip-path:url(#a);}</style><clipPath id="a"><rect width="43" height="43" transform="translate(1679 69) rotate(90)"/></clipPath></defs><g class="a" transform="translate(-1636 -69)"><path d="M26.566,62.334c16.231,0,25.109-13.452,25.109-25.109,0-.378,0-.756-.027-1.147a17.949,17.949,0,0,0,4.4-4.574,17.38,17.38,0,0,1-5.073,1.39A8.843,8.843,0,0,0,54.86,28.01a17.777,17.777,0,0,1-5.6,2.145A8.831,8.831,0,0,0,34.23,38.21a25.055,25.055,0,0,1-18.188-9.215,8.828,8.828,0,0,0,2.725,11.779,8.711,8.711,0,0,1-4.007-1.106v.108a8.838,8.838,0,0,0,7.083,8.649,8.815,8.815,0,0,1-3.98.148A8.836,8.836,0,0,0,26.108,54.7a17.756,17.756,0,0,1-10.956,3.791,18.347,18.347,0,0,1-2.1-.121,24.959,24.959,0,0,0,13.519,3.967" transform="translate(1622.953 45.644)"/></g></svg>